<?xml version="1.0" encoding="utf-8"?>
<!-- Generator: Adobe Illustrator 16.0.0, SVG Export Plug-In . SVG Version: 6.00 Build 0)  -->
<!DOCTYPE svg PUBLIC "-//W3C//DTD SVG 1.1//EN" "http://www.w3.org/Graphics/SVG/1.1/DTD/svg11.dtd">
<svg version="1.1" id="圖層_1" xmlns="http://www.w3.org/2000/svg" xmlns:xlink="http://www.w3.org/1999/xlink" x="0px" y="0px"
	 width="160px" height="46px" viewBox="0 0 160 46" enable-background="new 0 0 160 46" xml:space="preserve">
<g>
	<g>
		<path fill="#C2B59B" d="M20.13,1.713l18.314,10.454v20.906L20.13,43.527L1.818,33.073V12.167L20.13,1.713 M20.13-0.379
			l-0.901,0.514L0.917,10.588L0,11.112v1.055v20.906v1.056l0.917,0.524l18.313,10.453l0.901,0.514l0.901-0.514l18.314-10.453
			l0.917-0.524v-1.056V12.167v-1.055l-0.917-0.523L21.031,0.135L20.13-0.379L20.13-0.379z"/>
	</g>
	<g>
		<g opacity="0.75">
			<path fill="#231F20" d="M16.269,35.031c-0.014,0-0.027,0-0.041-0.001c-0.3-0.02-0.545-0.243-0.588-0.536l-2.857-19.599
				l-8.565,2.939c-0.333,0.114-0.693-0.06-0.806-0.386c-0.116-0.327,0.06-0.685,0.39-0.799l9.292-3.188
				c0.179-0.062,0.377-0.042,0.538,0.057c0.162,0.097,0.271,0.26,0.298,0.446l2.589,17.759c1.538-3.938,5.221-11.278,11.833-13.152
				c0.336-0.095,0.688,0.098,0.785,0.43c0.097,0.334-0.098,0.681-0.435,0.776c-8.287,2.348-11.787,14.668-11.821,14.792
				C16.804,34.844,16.553,35.031,16.269,35.031z"/>
		</g>
		<g>
			<path fill="#FFFFFF" d="M15.768,34.536c-0.012,0-0.026,0-0.039-0.001c-0.3-0.019-0.546-0.242-0.589-0.536L12.283,14.4
				l-8.564,2.94c-0.333,0.113-0.693-0.06-0.808-0.387c-0.115-0.327,0.061-0.686,0.391-0.798l9.292-3.189
				c0.18-0.061,0.376-0.041,0.538,0.057c0.162,0.097,0.271,0.261,0.298,0.446l2.588,17.76c1.539-3.941,5.222-11.279,11.834-13.152
				c0.335-0.096,0.687,0.097,0.785,0.43c0.096,0.333-0.099,0.68-0.436,0.775c-8.288,2.348-11.787,14.669-11.822,14.793
				C16.303,34.349,16.052,34.536,15.768,34.536z"/>
		</g>
	</g>
	<ellipse fill="#8DC63F" cx="32.113" cy="17.261" rx="1.692" ry="1.673"/>
</g>
<g>
	<path fill="#E6E7E8" d="M58.315,34.288h-2.621V10.882h12.997v1.243H58.315v9.681h10.04v1.19h-10.04V34.288z"/>
	<path fill="#E6E7E8" d="M71.666,15.259c0-0.35,0.127-0.653,0.381-0.911c0.253-0.256,0.552-0.385,0.894-0.385
		c0.366,0,0.676,0.125,0.93,0.376s0.381,0.557,0.381,0.919c0,0.35-0.13,0.651-0.39,0.901c-0.26,0.251-0.567,0.376-0.921,0.376
		c-0.331,0-0.626-0.131-0.885-0.394C71.796,15.88,71.666,15.585,71.666,15.259z M71.914,18.935h2.107v15.353h-2.107V18.935z"/>
	<path fill="#E6E7E8" d="M86.876,24.135l-7.543,10.153h-1.718l8.464-11.326l-8.428-12.08h2.939l7.012,9.997l7.349-9.997h1.665
		L88.47,22.104l8.552,12.184h-2.938L86.876,24.135z"/>
	<path fill="#E6E7E8" d="M102.459,33.028h11.137v1.26H99.838V10.882h13.387v1.243h-10.766v9.611h10.109v1.19h-10.109V33.028z"/>
	<path fill="#E6E7E8" d="M121.033,34.288h-2.621V10.882h7.083c2.763,0,4.913,0.572,6.454,1.716c1.541,1.144,2.311,2.743,2.311,4.797
		c0,1.739-0.658,3.125-1.975,4.158c-1.316,1.033-3.096,1.549-5.338,1.549c-0.248,0-0.434-0.002-0.559-0.009
		c-0.123-0.005-0.238-0.014-0.345-0.026l8.075,11.221h-3.223l-8.482-12.219h3.506c1.724,0,3.075-0.432,4.055-1.295
		c0.98-0.864,1.471-2.048,1.471-3.554c0-1.668-0.543-2.935-1.629-3.799c-1.087-0.863-2.687-1.295-4.799-1.295h-3.984V34.288z"/>
	<path fill="#E6E7E8" d="M137.783,31.417l1.205-0.717c0.507,1.004,1.195,1.785,2.063,2.346s1.809,0.84,2.824,0.84
		c1.334,0,2.404-0.467,3.214-1.4c0.808-0.934,1.213-2.171,1.213-3.711c0-1.227-0.26-2.189-0.779-2.889
		c-0.52-0.7-1.505-1.378-2.957-2.031l-1.487-0.647c-1.983-0.887-3.341-1.774-4.072-2.661c-0.732-0.887-1.098-2.007-1.098-3.361
		c0-1.914,0.654-3.528,1.965-4.841s2.928-1.969,4.852-1.969c1.145,0,2.163,0.271,3.055,0.814c0.891,0.542,1.674,1.369,2.346,2.477
		l-1.063,0.613c-0.437-0.91-1.015-1.622-1.734-2.136c-0.721-0.514-1.494-0.771-2.32-0.771c-1.346,0-2.473,0.45-3.382,1.348
		c-0.909,0.899-1.363,2.007-1.363,3.326c0,1.156,0.295,2.098,0.886,2.828c0.59,0.729,1.693,1.433,3.311,2.109l1.523,0.648
		c1.853,0.782,3.134,1.613,3.842,2.495c0.709,0.882,1.063,2.033,1.063,3.457c0,2.148-0.661,3.898-1.982,5.252
		c-1.322,1.354-3.023,2.031-5.1,2.031c-1.346,0-2.523-0.289-3.533-0.867C139.262,33.422,138.433,32.562,137.783,31.417z"/>
</g>
</svg>
