<?xml version="1.0" encoding="utf-8"?>
<!-- Generator: Adobe Illustrator 16.0.0, SVG Export Plug-In . SVG Version: 6.00 Build 0)  -->
<!DOCTYPE svg PUBLIC "-//W3C//DTD SVG 1.1//EN" "http://www.w3.org/Graphics/SVG/1.1/DTD/svg11.dtd">
<svg version="1.1" id="圖層_1" xmlns="http://www.w3.org/2000/svg" xmlns:xlink="http://www.w3.org/1999/xlink" x="0px" y="0px"
	 width="58px" height="50px" viewBox="0 0 58 50" enable-background="new 0 0 58 50" xml:space="preserve">
<g>
	<g>
		<g>
			<polygon points="0.194,25.001 14.628,50.001 43.495,50.001 57.929,25.001 43.495,0.001 14.628,0.001 			"/>
		</g>
	</g>
	<g>
		<path fill="#FFFFFF" d="M41.186,4.001l12.125,21l-12.125,21H16.938l-12.125-21l12.125-21H41.186 M41.763,3.001h-0.577H16.938
			H16.36l-0.289,0.5l-12.125,21l-0.288,0.5l0.288,0.5l12.125,21l0.289,0.5h0.577h24.248h0.577l0.289-0.5l12.125-21l0.288-0.5
			l-0.288-0.5l-12.125-21L41.763,3.001L41.763,3.001z"/>
	</g>
</g>
<g>
	<g>
		<path fill="#E6E7E8" d="M28.386,18.106c0.461,0.379,1.418,1.178,1.418,2.697c0,1.479-0.84,2.18-1.678,2.838
			c-0.26,0.26-0.561,0.541-0.561,0.98s0.301,0.68,0.521,0.859l0.719,0.559c0.879,0.74,1.678,1.42,1.678,2.799
			c0,1.879-1.818,3.777-5.256,3.777c-2.898,0-4.297-1.379-4.297-2.859c0-0.719,0.359-1.736,1.539-2.438
			c1.238-0.76,2.918-0.859,3.818-0.92c-0.281-0.359-0.6-0.738-0.6-1.357c0-0.34,0.1-0.539,0.199-0.781
			c-0.221,0.021-0.439,0.041-0.641,0.041c-2.117,0-3.316-1.58-3.316-3.137c0-0.922,0.42-1.941,1.277-2.68
			c1.141-0.939,2.5-1.1,3.58-1.1h4.115l-1.279,0.721H28.386z M26.968,26.979c-0.16-0.02-0.262-0.02-0.459-0.02
			c-0.182,0-1.262,0.041-2.1,0.322c-0.439,0.158-1.719,0.637-1.719,2.057c0,1.418,1.379,2.439,3.518,2.439
			c1.918,0,2.939-0.922,2.939-2.16C29.147,28.597,28.485,28.06,26.968,26.979z M27.548,23.183c0.457-0.461,0.498-1.1,0.498-1.459
			c0-1.439-0.859-3.678-2.518-3.678c-0.52,0-1.08,0.26-1.398,0.66c-0.342,0.42-0.441,0.959-0.441,1.479
			c0,1.34,0.779,3.557,2.498,3.557C26.687,23.741,27.226,23.503,27.548,23.183z"/>
		<polygon fill="#E6E7E8" points="38.745,23.089 35.675,23.089 35.675,20.019 34.214,20.019 34.214,23.089 31.142,23.089 
			31.142,24.55 34.214,24.55 34.214,27.622 35.675,27.622 35.675,24.55 38.745,24.55 		"/>
	</g>
</g>
</svg>
