<?xml version="1.0" encoding="utf-8"?>
<!-- Generator: Adobe Illustrator 16.0.0, SVG Export Plug-In . SVG Version: 6.00 Build 0)  -->
<!DOCTYPE svg PUBLIC "-//W3C//DTD SVG 1.1//EN" "http://www.w3.org/Graphics/SVG/1.1/DTD/svg11.dtd">
<svg version="1.1" id="圖層_1" xmlns="http://www.w3.org/2000/svg" xmlns:xlink="http://www.w3.org/1999/xlink" x="0px" y="0px"
	 width="58px" height="50px" viewBox="0 0 58 50" enable-background="new 0 0 58 50" xml:space="preserve">
<path fill="#E6E7E8" d="M31.402,18.727h3.117v-3.862h-3.117c-2.58,0-4.68,2.274-4.68,5.068v1.949h-3.119v3.877h3.119v9.379h3.898
	v-9.379h3.898v-3.877h-3.898v-1.984C30.621,19.229,31.035,18.727,31.402,18.727z"/>
<g>
	<g>
		<g>
			<polygon points="0.194,25.001 14.628,50.001 43.495,50.001 57.929,25.001 43.495,0.001 14.628,0.001 			"/>
		</g>
	</g>
	<g>
		<path fill="#FFFFFF" d="M41.186,4.001l12.125,21l-12.125,21H16.938l-12.125-21l12.125-21H41.186 M41.763,3.001h-0.577H16.938
			H16.36l-0.289,0.5l-12.124,21l-0.289,0.5l0.289,0.5l12.124,21l0.289,0.5h0.577h24.248h0.577l0.289-0.5l12.124-21l0.289-0.5
			l-0.289-0.5l-12.124-21L41.763,3.001L41.763,3.001z"/>
	</g>
</g>
<path fill="#E6E7E8" d="M40.901,24.368c-0.832,0.143-2.039-0.006-2.68-0.271c1.328-0.111,2.23-0.715,2.578-1.535
	c-0.482,0.293-1.969,0.615-2.789,0.309c-0.043-0.195-0.09-0.377-0.133-0.543c-0.625-2.303-2.773-4.158-5.018-3.936
	c0.178-0.072,0.363-0.141,0.549-0.205c0.246-0.086,1.699-0.324,1.469-0.836c-0.191-0.453-1.967,0.34-2.299,0.443
	c0.439-0.164,1.17-0.451,1.246-0.957c-0.674,0.092-1.338,0.412-1.848,0.877c0.182-0.199,0.322-0.443,0.354-0.703
	c-1.803,1.152-2.855,3.473-3.705,5.729c-0.67-0.65-1.264-1.16-1.795-1.447c-1.492-0.799-3.275-1.633-6.076-2.674
	c-0.084,0.926,0.459,2.162,2.025,2.979c-0.338-0.043-0.961,0.057-1.457,0.176c0.203,1.064,0.863,1.939,2.652,2.361
	c-0.816,0.053-1.24,0.24-1.621,0.643c0.369,0.738,1.281,1.607,2.914,1.43c-1.818,0.781-0.742,2.234,0.736,2.02
	c-2.52,2.609-6.496,2.414-8.783,0.234c5.963,8.133,18.924,4.807,20.854-3.025C39.524,25.446,40.374,24.935,40.901,24.368z"/>
</svg>
