<?xml version="1.0" encoding="utf-8"?>
<!-- Generator: Adobe Illustrator 16.0.0, SVG Export Plug-In . SVG Version: 6.00 Build 0)  -->
<!DOCTYPE svg PUBLIC "-//W3C//DTD SVG 1.1//EN" "http://www.w3.org/Graphics/SVG/1.1/DTD/svg11.dtd">
<svg version="1.1" id="圖層_1" xmlns="http://www.w3.org/2000/svg" xmlns:xlink="http://www.w3.org/1999/xlink" x="0px" y="0px"
	 width="58px" height="50px" viewBox="0 0 58 50" enable-background="new 0 0 58 50" xml:space="preserve">
<g>
	<g>
		<g>
			<polygon points="0.194,25.001 14.628,50.001 43.495,50.001 57.929,25.001 43.495,0.001 14.628,0.001 			"/>
		</g>
	</g>
	<g>
		<path fill="#FFFFFF" d="M41.186,4.001l12.125,21l-12.125,21H16.938l-12.125-21l12.125-21H41.186 M41.763,3.001h-0.577H16.938
			H16.36l-0.289,0.5l-12.125,21l-0.289,0.5l0.289,0.5l12.125,21l0.289,0.5h0.577h24.248h0.577l0.289-0.5l12.124-21l0.289-0.5
			l-0.289-0.5l-12.124-21L41.763,3.001L41.763,3.001z"/>
	</g>
</g>
<path fill="#E6E7E8" d="M31.402,18.727h3.117v-3.862h-3.117c-2.58,0-4.68,2.274-4.68,5.068v1.949h-3.119v3.877h3.119v9.379h3.898
	v-9.379h3.898v-3.877h-3.898v-1.984C30.621,19.229,31.035,18.727,31.402,18.727z"/>
</svg>
