<?xml version="1.0" encoding="utf-8"?>
<!-- Generator: Adobe Illustrator 16.0.0, SVG Export Plug-In . SVG Version: 6.00 Build 0)  -->
<!DOCTYPE svg PUBLIC "-//W3C//DTD SVG 1.1//EN" "http://www.w3.org/Graphics/SVG/1.1/DTD/svg11.dtd">
<svg version="1.1" id="圖層_1" xmlns="http://www.w3.org/2000/svg" xmlns:xlink="http://www.w3.org/1999/xlink" x="0px" y="0px"
	 width="58px" height="50px" viewBox="0 0 58 50" enable-background="new 0 0 58 50" xml:space="preserve">
<g>
	<g>
		<g>
			<polygon points="0.194,25.001 14.628,50.001 43.495,50.001 57.929,25.001 43.495,0.001 14.628,0.001 			"/>
		</g>
	</g>
	<g>
		<path fill="#FFFFFF" d="M41.186,4.001l12.125,21l-12.125,21H16.938l-12.125-21l12.125-21H41.186 M41.763,3.001h-0.577H16.938
			H16.36l-0.289,0.5l-12.124,21l-0.289,0.5l0.289,0.5l12.124,21l0.289,0.5h0.577h24.248h0.577l0.289-0.5l12.125-21l0.288-0.5
			l-0.288-0.5l-12.125-21L41.763,3.001L41.763,3.001z"/>
	</g>
</g>
<path fill-rule="evenodd" clip-rule="evenodd" fill="#FFFFFF" d="M29.067,35.828c-2.561,0-5.121,0.002-7.682-0.002
	c-0.927-0.002-1.605-0.435-2.056-1.234c-0.177-0.314-0.252-0.658-0.267-1.017c-0.002-0.036-0.001-0.073-0.001-0.109
	c0-5.09,0.001-10.18-0.001-15.27c0-0.597,0.184-1.126,0.581-1.573c0.452-0.508,1.023-0.783,1.704-0.783
	c5.143-0.004,10.284-0.003,15.426-0.001c1.241,0,2.266,1.016,2.288,2.257c0,0.041,0,0.083,0,0.125c0,5.079,0,10.158,0.001,15.237
	c0.001,0.442-0.087,0.86-0.321,1.236c-0.454,0.729-1.108,1.13-1.976,1.132C34.198,35.831,31.634,35.828,29.067,35.828z
	 M21.378,24.305c0,0.08,0,0.142,0,0.203c0,2.706,0,5.412,0,8.119c0,0.072,0.001,0.146,0.011,0.218
	c0.043,0.333,0.259,0.577,0.583,0.652c0.086,0.02,0.176,0.019,0.264,0.019c4.555,0.001,9.107,0.001,13.662,0.001
	c0.037,0,0.073-0.001,0.109-0.001c0.14,0.002,0.268-0.04,0.383-0.115c0.248-0.159,0.357-0.393,0.357-0.686
	c-0.003-0.661-0.002-1.322-0.002-1.982c0-2.077,0.001-4.153,0-6.23c0-0.064-0.004-0.13-0.006-0.191c-0.582,0-1.146,0-1.711,0
	c0.941,3.717-1.675,7.351-5.469,7.657c-1.701,0.138-3.234-0.345-4.514-1.481c-1.865-1.662-2.466-3.752-1.957-6.182
	C22.521,24.305,21.96,24.305,21.378,24.305z M25.225,25.834c0,2.119,1.712,3.838,3.825,3.84c2.133,0.002,3.839-1.701,3.854-3.828
	c0.013-2.025-1.613-3.846-3.834-3.851C26.894,21.991,25.222,23.753,25.225,25.834z M32.915,20.064c0,0.364,0,0.729,0,1.093
	c0,0.011,0,0.021,0,0.031c-0.024,0.462,0.366,0.811,0.806,0.804c0.738-0.01,1.478-0.01,2.216,0c0.461,0.006,0.817-0.353,0.812-0.801
	c-0.009-0.75-0.001-1.499-0.004-2.249c0-0.082-0.009-0.167-0.032-0.245c-0.098-0.34-0.389-0.547-0.765-0.549
	c-0.733-0.002-1.468,0.009-2.201-0.004c-0.455-0.008-0.854,0.327-0.835,0.827C32.925,19.336,32.915,19.7,32.915,20.064z"/>
</svg>
